<mxfile host="65bd71144e">
    <diagram id="RzdB1_ECVK01WcsdOi-J" name="sodo">
        <mxGraphModel dx="1078" dy="790" grid="1" gridSize="10" guides="1" tooltips="1" connect="1" arrows="1" fold="1" page="1" pageScale="1" pageWidth="1169" pageHeight="827" background="none" math="0" shadow="0">
            <root>
                <mxCell id="0"/>
                <mxCell id="1" parent="0"/>
                <mxCell id="164" style="edgeStyle=none;html=1;fontColor=#FF0000;endArrow=none;endFill=0;dashed=1;" parent="1" source="5" target="158" edge="1">
                    <mxGeometry relative="1" as="geometry"/>
                </mxCell>
                <mxCell id="121" value="" style="rounded=0;whiteSpace=wrap;html=1;fillColor=none;dashed=1;" parent="1" vertex="1">
                    <mxGeometry x="167.5" y="100" width="160" height="100" as="geometry"/>
                </mxCell>
                <mxCell id="2" value="システム関連図" style="text;html=1;strokeColor=none;fillColor=none;align=center;verticalAlign=middle;whiteSpace=wrap;rounded=0;" parent="1" vertex="1">
                    <mxGeometry x="40" y="20" width="100" height="20" as="geometry"/>
                </mxCell>
                <mxCell id="10" value="" style="rounded=0;orthogonalLoop=1;jettySize=auto;html=1;endArrow=none;endFill=0;" parent="1" source="237" target="5" edge="1">
                    <mxGeometry relative="1" as="geometry">
                        <mxPoint x="105" y="150" as="sourcePoint"/>
                    </mxGeometry>
                </mxCell>
                <mxCell id="155" value="" style="edgeStyle=none;html=1;endArrow=none;endFill=0;" parent="1" source="5" target="117" edge="1">
                    <mxGeometry relative="1" as="geometry"/>
                </mxCell>
                <mxCell id="5" value="納期同期システム" style="rounded=1;whiteSpace=wrap;html=1;" parent="1" vertex="1">
                    <mxGeometry x="187.5" y="120" width="120" height="60" as="geometry"/>
                </mxCell>
                <mxCell id="21" value="ユースケース図" style="text;html=1;strokeColor=none;fillColor=none;align=center;verticalAlign=middle;whiteSpace=wrap;rounded=0;" parent="1" vertex="1">
                    <mxGeometry x="600" y="20" width="100" height="20" as="geometry"/>
                </mxCell>
                <mxCell id="33" value="ドメインモデル図 / オブジェクト図" style="text;html=1;strokeColor=none;fillColor=none;align=center;verticalAlign=middle;whiteSpace=wrap;rounded=0;" parent="1" vertex="1">
                    <mxGeometry x="40" y="840" width="200" height="20" as="geometry"/>
                </mxCell>
                <mxCell id="117" value="ものレボ" style="rounded=1;whiteSpace=wrap;html=1;" parent="1" vertex="1">
                    <mxGeometry x="370" y="120" width="120" height="60" as="geometry"/>
                </mxCell>
                <mxCell id="123" style="edgeStyle=none;html=1;endArrow=none;endFill=0;" parent="1" source="122" target="121" edge="1">
                    <mxGeometry relative="1" as="geometry"/>
                </mxCell>
                <mxCell id="122" value="今回開発する範囲" style="text;html=1;strokeColor=none;fillColor=none;align=center;verticalAlign=middle;whiteSpace=wrap;rounded=0;" parent="1" vertex="1">
                    <mxGeometry x="210" y="40" width="140" height="30" as="geometry"/>
                </mxCell>
                <mxCell id="158" value="&lt;div&gt;・小型コンピュータRaspberry Piで定期的に実行して、同期を実現する&lt;/div&gt;&lt;div&gt;・ものレボへのアクセスを密にすると、攻撃とみなされることもある&lt;/div&gt;&lt;div&gt;&lt;br&gt;&lt;/div&gt;&lt;div&gt;＃ものレボから情報取得方法&lt;/div&gt;&lt;div&gt;&lt;br&gt;&lt;/div&gt;&lt;div&gt;・ものレボの[案件管理]画面の[ダウンロード]ボタンから、案件情報をダウンロードする&lt;br&gt;&lt;/div&gt;&lt;div&gt;&lt;br&gt;&lt;/div&gt;&lt;div&gt;ものレボへ情報更新について(ものレボ橋場様からの情報)&lt;/div&gt;&lt;div&gt;&lt;br&gt;&lt;/div&gt;&lt;div&gt;・csvファイルのアップロードは、新規作成にのみ対応 更新はできない&lt;/div&gt;&lt;div&gt;・ものレボシステムでは、作業NoはKey項目ではない&amp;nbsp;&lt;span&gt;同じ案件No、同じ品番、同じ納期の案件も作成できる&lt;/span&gt;&lt;/div&gt;&lt;div&gt;&lt;span&gt;・&lt;/span&gt;&lt;span&gt;更新処理を実現するには、システム側で持っているKey項目(#id)を&lt;/span&gt;&lt;span&gt;出力できるようにし、それを基に更新ができるようにする必要があるが、&lt;/span&gt;&lt;span&gt;技術開発を伴うため直近で実現することが難しい&lt;/span&gt;&lt;/div&gt;&lt;div&gt;&lt;span&gt;&lt;br&gt;&lt;/span&gt;&lt;/div&gt;&lt;div&gt;&lt;span&gt;ならば、&lt;/span&gt;&lt;/div&gt;&lt;div&gt;&lt;span&gt;・人の操作を模す形で実現するほかない&lt;/span&gt;&lt;/div&gt;&lt;div&gt;&lt;span&gt;・[案件管理]画面-&amp;gt;[案件詳細]画面の[計画変更]ボタンで更新処理をする&lt;/span&gt;&lt;/div&gt;&lt;div&gt;&lt;span&gt;・作業Noを探すのにページ送りより、ものレボの検索機能を利用するのも考慮する&lt;/span&gt;&lt;/div&gt;" style="rounded=0;whiteSpace=wrap;html=1;align=left;verticalAlign=top;" parent="1" vertex="1">
                    <mxGeometry x="20" y="360" width="560" height="430" as="geometry"/>
                </mxCell>
                <mxCell id="237" value="受注管理DB" style="rounded=1;whiteSpace=wrap;html=1;" vertex="1" parent="1">
                    <mxGeometry x="20" y="120" width="120" height="60" as="geometry"/>
                </mxCell>
            </root>
        </mxGraphModel>
    </diagram>
</mxfile>
